<?xml version="1.0" encoding="UTF-8" standalone="no"?>
<!-- Created with Inkscape (http://www.inkscape.org/) -->

<svg
   xmlns:dc="http://purl.org/dc/elements/1.1/"
   xmlns:cc="http://creativecommons.org/ns#"
   xmlns:rdf="http://www.w3.org/1999/02/22-rdf-syntax-ns#"
   xmlns:svg="http://www.w3.org/2000/svg"
   xmlns="http://www.w3.org/2000/svg"
   xmlns:sodipodi="http://sodipodi.sourceforge.net/DTD/sodipodi-0.dtd"
   xmlns:inkscape="http://www.inkscape.org/namespaces/inkscape"
   width="180"
   height="40"
   id="svg2"
   version="1.1"
   inkscape:version="0.48.5 r10040"
   sodipodi:docname="New document 1">
  <defs
     id="defs4" />
  <sodipodi:namedview
     id="base"
     pagecolor="#ffffff"
     bordercolor="#666666"
     borderopacity="1.0"
     inkscape:pageopacity="0.0"
     inkscape:pageshadow="2"
     inkscape:zoom="1"
     inkscape:cx="387.39565"
     inkscape:cy="26.623222"
     inkscape:document-units="px"
     inkscape:current-layer="layer1"
     showgrid="false"
     inkscape:window-width="1920"
     inkscape:window-height="1018"
     inkscape:window-x="-8"
     inkscape:window-y="-8"
     inkscape:window-maximized="1" />
  <metadata
     id="metadata7">
    <rdf:RDF>
      <cc:Work
         rdf:about="">
        <dc:format>image/svg+xml</dc:format>
        <dc:type
           rdf:resource="http://purl.org/dc/dcmitype/StillImage" />
        <dc:title></dc:title>
      </cc:Work>
    </rdf:RDF>
  </metadata>
  <g
     inkscape:label="Layer 1"
     inkscape:groupmode="layer"
     id="layer1"
     transform="translate(0,-1012.3622)">
    <path
       sodipodi:type="arc"
       style="fill:#ffffff;fill-opacity:1;fill-rule:nonzero;stroke:#000000;stroke-width:4.22222185;stroke-linejoin:miter;stroke-miterlimit:4;stroke-opacity:1;stroke-dasharray:none;stroke-dashoffset:0"
       id="path2989-8"
       sodipodi:cx="121"
       sodipodi:cy="959.36218"
       sodipodi:rx="19"
       sodipodi:ry="19"
       d="m 140,959.36218 a 19,19 0 1 1 -38,0 19,19 0 1 1 38,0 z"
       transform="matrix(0.47368421,0,0,0.47368421,-47.315789,627.92746)" />
    <path
       sodipodi:type="arc"
       style="fill:#ffffff;fill-opacity:1;fill-rule:nonzero;stroke:#000000;stroke-width:4.22222185;stroke-linejoin:miter;stroke-miterlimit:4;stroke-opacity:1;stroke-dasharray:none;stroke-dashoffset:0"
       id="path2989-9-2"
       sodipodi:cx="121"
       sodipodi:cy="959.36218"
       sodipodi:rx="19"
       sodipodi:ry="19"
       d="m 140,959.36218 a 19,19 0 1 1 -38,0 19,19 0 1 1 38,0 z"
       transform="matrix(0.47368421,0,0,0.47368421,-27.315789,627.92746)" />
    <text
       xml:space="preserve"
       style="font-size:26px;font-style:normal;font-variant:normal;font-weight:normal;font-stretch:normal;line-height:0%;letter-spacing:0px;word-spacing:0px;fill:#000000;fill-opacity:1;stroke:none;font-family:Cambria;-inkscape-font-specification:Cambria"
       x="117.07031"
       y="787.90808"
       id="text2985"
       sodipodi:linespacing="0%"><tspan
         sodipodi:role="line"
         id="tspan2987"
         x="117.07031"
         y="787.90808"
         style="font-size:26px;font-style:normal;font-variant:normal;font-weight:bold;font-stretch:normal;font-family:Verdana;-inkscape-font-specification:Verdana Bold"
         dx="0 -4.24264">L     kAtMe</tspan></text>
    <path
       sodipodi:type="arc"
       style="fill:#ffffff;fill-opacity:1;fill-rule:nonzero;stroke:#000000;stroke-width:1;stroke-linejoin:miter;stroke-miterlimit:4;stroke-opacity:1;stroke-dasharray:none;stroke-dashoffset:0"
       id="path3009"
       sodipodi:cx="11.9375"
       sodipodi:cy="1047.5497"
       sodipodi:rx="4.8125"
       sodipodi:ry="8.8125"
       d="m 16.75,1047.5497 a 4.8125,8.8125 0 1 1 -9.625,0 4.8125,8.8125 0 1 1 9.625,0 z"
       transform="translate(-0.9178932,39.25)" />
    <path
       sodipodi:type="arc"
       style="fill:#ffffff;fill-opacity:1;fill-rule:nonzero;stroke:#000000;stroke-width:1;stroke-linejoin:miter;stroke-miterlimit:4;stroke-opacity:1;stroke-dasharray:none;stroke-dashoffset:0"
       id="path3009-7"
       sodipodi:cx="11.9375"
       sodipodi:cy="1047.5497"
       sodipodi:rx="4.8125"
       sodipodi:ry="8.8125"
       d="m 16.75,1047.5497 a 4.8125,8.8125 0 1 1 -9.625,0 4.8125,8.8125 0 1 1 9.625,0 z"
       transform="translate(17,39.25)" />
    <path
       sodipodi:type="arc"
       style="fill:#ffffff;fill-opacity:1;fill-rule:nonzero;stroke:#000000;stroke-width:4.22222185;stroke-linejoin:miter;stroke-miterlimit:4;stroke-opacity:1;stroke-dasharray:none;stroke-dashoffset:0"
       id="path2989"
       sodipodi:cx="121"
       sodipodi:cy="959.36218"
       sodipodi:rx="19"
       sodipodi:ry="19"
       d="m 140,959.36218 a 19,19 0 1 1 -38,0 19,19 0 1 1 38,0 z"
       transform="matrix(0.47368421,0,0,0.47368421,86.159081,323.281)" />
    <path
       sodipodi:type="arc"
       style="fill:#ffffff;fill-opacity:1;fill-rule:nonzero;stroke:#000000;stroke-width:4.22222185;stroke-linejoin:miter;stroke-miterlimit:4;stroke-opacity:1;stroke-dasharray:none;stroke-dashoffset:0"
       id="path2989-9"
       sodipodi:cx="121"
       sodipodi:cy="959.36218"
       sodipodi:rx="19"
       sodipodi:ry="19"
       d="m 140,959.36218 a 19,19 0 1 1 -38,0 19,19 0 1 1 38,0 z"
       transform="matrix(0.47368421,0,0,0.47368421,106.15908,323.281)" />
    <path
       inkscape:connector-curvature="0"
       style="fill:#000000;fill-opacity:1;fill-rule:nonzero;stroke:none"
       d="m 144.50612,773.35354 c -2.65787,0 -4.8125,3.9455 -4.8125,8.8125 0,1.4324 0.20011,2.7419 0.53125,3.9375 1.00908,0.3914 2.10264,0.625 3.25,0.625 2.11753,0 4.0566,-0.7449 5.59375,-1.9688 0.14228,-0.8322 0.25,-1.6755 0.25,-2.5937 0,-4.867 -2.15463,-8.8125 -4.8125,-8.8125 z"
       id="path2989-4" />
    <path
       inkscape:connector-curvature="0"
       style="fill:#000000;fill-opacity:1;fill-rule:nonzero;stroke:none"
       d="m 162.41237,773.35354 c -2.65787,0 -4.8125,3.9455 -4.8125,8.8125 0,0.906 0.0801,1.7398 0.21875,2.5625 1.54554,1.2502 3.51353,2 5.65625,2 1.13295,0 2.22016,-0.2116 3.21875,-0.5938 0.33622,-1.2028 0.53125,-2.5247 0.53125,-3.9687 0,-4.867 -2.15463,-8.8125 -4.8125,-8.8125 z"
       id="path2989-9-8" />
    <path
       style="fill:none;stroke:#000000;stroke-width:2;stroke-linecap:butt;stroke-linejoin:miter;stroke-miterlimit:4;stroke-opacity:1;stroke-dasharray:none"
       d="m 136.875,788.83184 c 11.29167,5.12944 22.58333,5.53405 33.875,0"
       id="path3918"
       inkscape:connector-curvature="0"
       sodipodi:nodetypes="cc" />
    <rect
       style="fill:#000000;fill-opacity:1;fill-rule:nonzero;stroke:#000000;stroke-width:1;stroke-linejoin:miter;stroke-miterlimit:4;stroke-opacity:1;stroke-dasharray:none;stroke-dashoffset:0"
       id="rect3924"
       width="1023"
       height="39"
       x="0.5"
       y="1112.8622" />
    <text
       xml:space="preserve"
       style="font-size:26px;font-style:normal;font-variant:normal;font-weight:normal;font-stretch:normal;line-height:0%;letter-spacing:0px;word-spacing:0px;fill:#ffffff;fill-opacity:1;stroke:none;font-family:Cambria;-inkscape-font-specification:Cambria"
       x="17.070313"
       y="1041.5546"
       id="text2985-4"
       sodipodi:linespacing="0%"><tspan
         sodipodi:role="line"
         id="tspan2987-5"
         x="17.070313"
         y="1041.5546"
         style="font-size:26px;font-style:normal;font-variant:normal;font-weight:bold;font-stretch:normal;fill:#ffffff;font-family:Verdana;-inkscape-font-specification:Verdana Bold"
         dx="0 -4.24264">L     kAtMe</tspan></text>
    <path
       sodipodi:type="arc"
       style="fill:#ffffff;fill-opacity:1;fill-rule:nonzero;stroke:#ffffff;stroke-width:4.22222185;stroke-linejoin:miter;stroke-miterlimit:4;stroke-opacity:1;stroke-dasharray:none;stroke-dashoffset:0"
       id="path2989-1"
       sodipodi:cx="121"
       sodipodi:cy="959.36218"
       sodipodi:rx="19"
       sodipodi:ry="19"
       d="m 140,959.36218 a 19,19 0 1 1 -38,0 19,19 0 1 1 38,0 z"
       transform="matrix(0.47368421,0,0,0.47368421,-13.840919,576.92745)" />
    <path
       sodipodi:type="arc"
       style="fill:#ffffff;fill-opacity:1;fill-rule:nonzero;stroke:#ffffff;stroke-width:4.22222185;stroke-linejoin:miter;stroke-miterlimit:4;stroke-opacity:1;stroke-dasharray:none;stroke-dashoffset:0"
       id="path2989-9-7"
       sodipodi:cx="121"
       sodipodi:cy="959.36218"
       sodipodi:rx="19"
       sodipodi:ry="19"
       d="m 140,959.36218 a 19,19 0 1 1 -38,0 19,19 0 1 1 38,0 z"
       transform="matrix(0.47368421,0,0,0.47368421,6.159081,576.92745)" />
    <path
       inkscape:connector-curvature="0"
       style="fill:#000000;fill-opacity:1;fill-rule:nonzero;stroke:none"
       d="m 44.682896,1028.1339 c -2.65787,0 -4.8125,3.9455 -4.8125,8.8125 0,1.4324 0.200108,2.7419 0.53125,3.9375 1.009085,0.3914 2.102639,0.625 3.25,0.625 2.117527,0 4.056604,-0.7449 5.59375,-1.9688 0.142279,-0.8322 0.25,-1.6755 0.25,-2.5937 0,-4.867 -2.15463,-8.8125 -4.8125,-8.8125 z"
       id="path2989-4-1" />
    <path
       inkscape:connector-curvature="0"
       style="fill:#000000;fill-opacity:1;fill-rule:nonzero;stroke:none"
       d="m 62.235594,1028.1339 c -2.65787,0 -4.8125,3.9455 -4.8125,8.8125 0,0.906 0.08007,1.7398 0.21875,2.5625 1.545536,1.2502 3.513534,2 5.65625,2 1.132949,0 2.22016,-0.2116 3.21875,-0.5938 0.336216,-1.2028 0.53125,-2.5247 0.53125,-3.9687 0,-4.867 -2.15463,-8.8125 -4.8125,-8.8125 z"
       id="path2989-9-8-1" />
    <path
       style="fill:none;stroke:#ffffff;stroke-width:2;stroke-linecap:butt;stroke-linejoin:miter;stroke-miterlimit:4;stroke-opacity:1;stroke-dasharray:none"
       d="m 36.875,1042.4783 c 11.29167,5.1294 22.58333,5.534 33.875,0"
       id="path3918-5"
       inkscape:connector-curvature="0"
       sodipodi:nodetypes="cc" />
  </g>
</svg>
