<?xml version="1.0" encoding="UTF-8" standalone="no"?>
<!-- Created with Inkscape (http://www.inkscape.org/) -->

<svg
   xmlns:dc="http://purl.org/dc/elements/1.1/"
   xmlns:cc="http://creativecommons.org/ns#"
   xmlns:rdf="http://www.w3.org/1999/02/22-rdf-syntax-ns#"
   xmlns:svg="http://www.w3.org/2000/svg"
   xmlns="http://www.w3.org/2000/svg"
   xmlns:sodipodi="http://sodipodi.sourceforge.net/DTD/sodipodi-0.dtd"
   xmlns:inkscape="http://www.inkscape.org/namespaces/inkscape"
   width="60"
   height="60"
   id="svg2"
   version="1.1"
   inkscape:version="0.48.5 r10040"
   sodipodi:docname="replaybutton.svg"
   inkscape:export-filename="C:\Users\Nick\Desktop\HTML5 Games\Toppleblox\replaybutton.png"
   inkscape:export-xdpi="90"
   inkscape:export-ydpi="90">
  <defs
     id="defs4" />
  <sodipodi:namedview
     id="base"
     pagecolor="#ffffff"
     bordercolor="#666666"
     borderopacity="1.0"
     inkscape:pageopacity="0.0"
     inkscape:pageshadow="2"
     inkscape:zoom="1"
     inkscape:cx="264.70756"
     inkscape:cy="111.17871"
     inkscape:document-units="px"
     inkscape:current-layer="layer1"
     showgrid="false"
     fit-margin-top="0"
     fit-margin-left="0"
     fit-margin-right="0"
     fit-margin-bottom="0"
     inkscape:window-width="1920"
     inkscape:window-height="1018"
     inkscape:window-x="-8"
     inkscape:window-y="-8"
     inkscape:window-maximized="1" />
  <metadata
     id="metadata7">
    <rdf:RDF>
      <cc:Work
         rdf:about="">
        <dc:format>image/svg+xml</dc:format>
        <dc:type
           rdf:resource="http://purl.org/dc/dcmitype/StillImage" />
        <dc:title></dc:title>
      </cc:Work>
    </rdf:RDF>
  </metadata>
  <g
     inkscape:label="Layer 1"
     inkscape:groupmode="layer"
     id="layer1"
     transform="translate(0,-992.36218)">
    <rect
       style="opacity:0.9;fill:#333333;stroke:#000000;stroke-width:1;stroke-linejoin:miter;stroke-miterlimit:4;stroke-opacity:1;stroke-dasharray:none;stroke-dashoffset:0"
       id="rect2985"
       width="59"
       height="59"
       x="0.5"
       y="992.86218"
       rx="10"
       ry="10" />
    <path
       sodipodi:type="star"
       style="fill:#999999;fill-opacity:1;fill-rule:nonzero;stroke:#000000;stroke-width:1.97110581;stroke-linejoin:miter;stroke-miterlimit:4;stroke-opacity:1;stroke-dasharray:none;stroke-dashoffset:0"
       id="path2987"
       sodipodi:sides="3"
       sodipodi:cx="241"
       sodipodi:cy="688.36218"
       sodipodi:r1="37.215588"
       sodipodi:r2="18.607794"
       sodipodi:arg1="1.5707963"
       sodipodi:arg2="2.6179939"
       inkscape:flatsided="true"
       inkscape:rounded="0.1"
       inkscape:randomized="0"
       d="m 241,725.57777 c -6.44593,0 -35.45261,-50.24104 -32.22964,-55.82338 3.22296,-5.58234 61.23632,-5.58234 64.45928,0 3.22297,5.58234 -25.78371,55.82338 -32.22964,55.82338 z"
       transform="matrix(0,-0.50736924,0.50728966,0,-120.51634,1145.0508)"
       inkscape:transform-center-x="-4.0826017"
       inkscape:transform-center-y="2.41e-005" />
    <path
       style="fill:#999999;fill-opacity:1;fill-rule:nonzero;stroke:#000000;stroke-width:1;stroke-linejoin:miter;stroke-miterlimit:4;stroke-opacity:1;stroke-dasharray:none;stroke-dashoffset:0"
       d="m 15.24376,1009.6894 c -8.2007,8.2061 -8.20071,21.5109 0,29.7171 8.20071,8.2062 21.4967,8.2062 29.6974,0 5.281875,-5.2853 7.156529,-12.6777 5.634549,-19.4687 l -7.242049,1.9403 c 0.85644,4.281 -0.37899,8.9029 -3.6956,12.2217 -5.27189,5.2755 -13.8193,5.2755 -19.09119,0 -5.27188,-5.2753 -5.27189,-13.8284 0,-19.1038 2.25283,-2.2543 5.09921,-3.5381 8.03752,-3.8638 l -0.0331,7.2965 17.53339,-10.0825 -17.4671,-10.1821 -0.0166,5.4227 c -4.86799,0.3439 -9.63393,2.3769 -13.3572,6.1026 z"
       id="path2984"
       inkscape:connector-curvature="0" />
  </g>
</svg>
