<?xml version="1.0" encoding="UTF-8" standalone="no"?>
<!-- Created with Inkscape (http://www.inkscape.org/) -->

<svg
   xmlns:dc="http://purl.org/dc/elements/1.1/"
   xmlns:cc="http://creativecommons.org/ns#"
   xmlns:rdf="http://www.w3.org/1999/02/22-rdf-syntax-ns#"
   xmlns:svg="http://www.w3.org/2000/svg"
   xmlns="http://www.w3.org/2000/svg"
   xmlns:sodipodi="http://sodipodi.sourceforge.net/DTD/sodipodi-0.dtd"
   xmlns:inkscape="http://www.inkscape.org/namespaces/inkscape"
   width="400"
   height="640"
   id="svg2"
   version="1.1"
   inkscape:version="0.48.5 r10040"
   sodipodi:docname="toolbox.svg"
   inkscape:export-filename="C:\Users\Nick\Desktop\HTML5 Games\Toppleblox\toolbox.png"
   inkscape:export-xdpi="90"
   inkscape:export-ydpi="90">
  <defs
     id="defs4" />
  <sodipodi:namedview
     id="base"
     pagecolor="#ffffff"
     bordercolor="#666666"
     borderopacity="1.0"
     inkscape:pageopacity="0.0"
     inkscape:pageshadow="2"
     inkscape:zoom="1"
     inkscape:cx="114.46802"
     inkscape:cy="56.405788"
     inkscape:document-units="px"
     inkscape:current-layer="layer1"
     showgrid="false"
     showguides="true"
     inkscape:guide-bbox="true"
     inkscape:window-width="1920"
     inkscape:window-height="1018"
     inkscape:window-x="-8"
     inkscape:window-y="-8"
     inkscape:window-maximized="1" />
  <metadata
     id="metadata7">
    <rdf:RDF>
      <cc:Work
         rdf:about="">
        <dc:format>image/svg+xml</dc:format>
        <dc:type
           rdf:resource="http://purl.org/dc/dcmitype/StillImage" />
        <dc:title />
      </cc:Work>
    </rdf:RDF>
  </metadata>
  <g
     inkscape:label="Layer 1"
     inkscape:groupmode="layer"
     id="layer1"
     transform="translate(0,-412.36218)">
    <path
       style="fill:#ffffff;fill-opacity:1;fill-rule:nonzero;stroke:#000000;stroke-width:0.99999994;stroke-linejoin:miter;stroke-miterlimit:4;stroke-opacity:1;stroke-dasharray:none;stroke-dashoffset:0"
       d="M 25.5 0.5 C 22.73 0.5 20.5 2.73 20.5 5.5 L 20.5 16.5 L 5.5 20.5 C 2.82353 21.21373 0.5 22.73 0.5 25.5 L 0.5 54.5 C 0.5 57.27 2.82353 58.78627 5.5 59.5 L 20.5 63.5 L 20.5 576.5 L 5.5 580.5 C 2.8235292 581.21373 0.5 582.73 0.5 585.5 L 0.5 614.5 C 0.5 617.27 2.8235292 618.7862 5.5 619.5 L 20.5 623.5 L 20.5 634.5 C 20.5 637.27 22.73 639.5 25.5 639.5 L 374.5 639.5 C 377.27 639.5 379.5 637.27 379.5 634.5 L 379.5 623.5 L 394.5 619.5 C 397.17647 618.7862 399.5 617.27 399.5 614.5 L 399.5 585.5 C 399.5 582.73 397.17647 581.21373 394.5 580.5 L 379.5 576.5 L 379.5 63.5 L 394.5 59.5 C 397.17647 58.78627 399.5 57.27 399.5 54.5 L 399.5 25.5 C 399.5 22.73 397.17647 21.21373 394.5 20.5 L 379.5 16.5 L 379.5 5.5 C 379.5 2.73 377.27 0.5 374.5 0.5 L 25.5 0.5 z "
       transform="translate(0,412.36218)"
       id="rect3089-8" />
    <path
       sodipodi:type="star"
       style="fill:#ff0000;fill-opacity:1;fill-rule:nonzero;stroke:#000000;stroke-width:1.18012834000000000;stroke-linejoin:miter;stroke-miterlimit:4;stroke-opacity:1;stroke-dasharray:none;stroke-dashoffset:0"
       id="path3085-8-2"
       sodipodi:sides="3"
       sodipodi:cx="164.5"
       sodipodi:cy="22.999998"
       sodipodi:r1="10.125"
       sodipodi:r2="5.0625"
       sodipodi:arg1="1.5707963"
       sodipodi:arg2="2.6179939"
       inkscape:flatsided="true"
       inkscape:rounded="0.1"
       inkscape:randomized="0"
       d="m 164.5,33.124998 c -1.7537,0 -9.64536,-13.66875 -8.76851,-15.1875 0.87685,-1.51875 16.66017,-1.51875 17.53702,0 0.87685,1.51875 -7.01481,15.1875 -8.76851,15.1875 z"
       transform="matrix(0,0.84770177,-0.84702936,0,34.1961,312.89838)"
       inkscape:transform-center-x="2.1440434" />
    <rect
       style="fill:#ffffff;fill-opacity:1;fill-rule:nonzero;stroke:#000000;stroke-width:0.99999988;stroke-linejoin:miter;stroke-miterlimit:4;stroke-opacity:1;stroke-dasharray:none;stroke-dashoffset:0"
       id="rect2987"
       width="139"
       height="59"
       x="420.5"
       y="832.86212" />
    <rect
       style="fill:#ffffff;fill-opacity:1;fill-rule:nonzero;stroke:#000000;stroke-width:0.99999988;stroke-linejoin:miter;stroke-miterlimit:4;stroke-opacity:1;stroke-dasharray:none;stroke-dashoffset:0"
       id="rect2987-1"
       width="59"
       height="59"
       x="420.5"
       y="752.86212" />
    <rect
       style="fill:#ffffff;fill-opacity:1;fill-rule:nonzero;stroke:#000000;stroke-width:0.99999988;stroke-linejoin:miter;stroke-miterlimit:4;stroke-opacity:1;stroke-dasharray:none;stroke-dashoffset:0"
       id="rect2987-1-4"
       width="59"
       height="59"
       x="500.5"
       y="752.86212" />
    <rect
       style="fill:#ffffff;fill-opacity:1;fill-rule:nonzero;stroke:#000000;stroke-width:1;stroke-linejoin:miter;stroke-miterlimit:4;stroke-opacity:1;stroke-dasharray:none;stroke-dashoffset:0"
       id="rect3043"
       width="139"
       height="139"
       x="420.5"
       y="432.86218" />
    <rect
       style="fill:#ffffff;fill-opacity:1;fill-rule:nonzero;stroke:#000000;stroke-width:1;stroke-linejoin:miter;stroke-miterlimit:4;stroke-opacity:1;stroke-dasharray:none;stroke-dashoffset:0"
       id="rect3043-0"
       width="139"
       height="139"
       x="420.5"
       y="592.86218" />
    <path
       sodipodi:type="star"
       style="fill:#ff0000;fill-opacity:1;fill-rule:nonzero;stroke:#000000;stroke-width:1.18012834000000000;stroke-linejoin:miter;stroke-miterlimit:4;stroke-opacity:1;stroke-dasharray:none;stroke-dashoffset:0"
       id="path3085-8"
       sodipodi:sides="3"
       sodipodi:cx="164.5"
       sodipodi:cy="22.999998"
       sodipodi:r1="10.125"
       sodipodi:r2="5.0625"
       sodipodi:arg1="1.5707963"
       sodipodi:arg2="2.6179939"
       inkscape:flatsided="true"
       inkscape:rounded="0.1"
       inkscape:randomized="0"
       d="m 164.5,33.124998 c -1.7537,0 -9.64536,-13.66875 -8.76851,-15.1875 0.87685,-1.51875 16.66017,-1.51875 17.53702,0 0.87685,1.51875 -7.01481,15.1875 -8.76851,15.1875 z"
       transform="matrix(0,0.84770177,0.84702936,0,365.8039,312.89838)"
       inkscape:transform-center-x="-2.1440434" />
    <rect
       style="fill:#ffffff;fill-opacity:1;fill-rule:nonzero;stroke:#000000;stroke-width:1;stroke-linejoin:miter;stroke-miterlimit:4;stroke-opacity:1;stroke-dasharray:none;stroke-dashoffset:0"
       id="rect3043-0-4"
       width="139"
       height="119"
       x="420.5"
       y="912.86218" />
    <path
       style="fill:#ff0000;fill-opacity:1;fill-rule:nonzero;stroke:#000000;stroke-width:1;stroke-linejoin:miter;stroke-miterlimit:4;stroke-opacity:1;stroke-dasharray:none;stroke-dashoffset:0"
       d="M 7.9230769,1005.3622 5.5,1007.7853 l 4.576923,4.5769 -4.576923,4.5769 2.4230769,2.4231 4.5769251,-4.5769 4.576924,4.5769 2.423077,-2.4231 -4.576923,-4.5769 4.576923,-4.5769 -2.423077,-2.4231 -4.576924,4.5769 -4.5769251,-4.5769 z"
       id="rect3013"
       inkscape:connector-curvature="0" />
    <path
       style="fill:#ff0000;fill-opacity:1;fill-rule:nonzero;stroke:#000000;stroke-width:1;stroke-linejoin:miter;stroke-miterlimit:4;stroke-opacity:1;stroke-dasharray:none;stroke-dashoffset:0"
       d="m 382.92307,1005.3622 -2.42307,2.4231 4.57692,4.5769 -4.57692,4.5769 2.42307,2.4231 4.57693,-4.5769 4.57692,4.5769 2.42308,-2.4231 -4.57692,-4.5769 4.57692,-4.5769 -2.42308,-2.4231 -4.57692,4.5769 -4.57693,-4.5769 z"
       id="rect3013-0"
       inkscape:connector-curvature="0" />
  </g>
</svg>
