<?xml version="1.0" encoding="UTF-8" standalone="no"?>
<!-- Created with Inkscape (http://www.inkscape.org/) -->

<svg
   xmlns:dc="http://purl.org/dc/elements/1.1/"
   xmlns:cc="http://creativecommons.org/ns#"
   xmlns:rdf="http://www.w3.org/1999/02/22-rdf-syntax-ns#"
   xmlns:svg="http://www.w3.org/2000/svg"
   xmlns="http://www.w3.org/2000/svg"
   xmlns:sodipodi="http://sodipodi.sourceforge.net/DTD/sodipodi-0.dtd"
   xmlns:inkscape="http://www.inkscape.org/namespaces/inkscape"
   width="400"
   height="640"
   id="svg2"
   version="1.1"
   inkscape:version="0.48.5 r10040"
   sodipodi:docname="toolbox.svg"
   inkscape:export-filename="C:\Users\Nick\Desktop\HTML5 Games\Toppleblox\toolbox.png"
   inkscape:export-xdpi="90"
   inkscape:export-ydpi="90">
  <defs
     id="defs4" />
  <sodipodi:namedview
     id="base"
     pagecolor="#ffffff"
     bordercolor="#666666"
     borderopacity="1.0"
     inkscape:pageopacity="0.0"
     inkscape:pageshadow="2"
     inkscape:zoom="1"
     inkscape:cx="310.2485"
     inkscape:cy="323.46507"
     inkscape:document-units="px"
     inkscape:current-layer="layer1"
     showgrid="false"
     showguides="true"
     inkscape:guide-bbox="true"
     inkscape:window-width="1920"
     inkscape:window-height="1018"
     inkscape:window-x="-8"
     inkscape:window-y="-8"
     inkscape:window-maximized="1" />
  <metadata
     id="metadata7">
    <rdf:RDF>
      <cc:Work
         rdf:about="">
        <dc:format>image/svg+xml</dc:format>
        <dc:type
           rdf:resource="http://purl.org/dc/dcmitype/StillImage" />
        <dc:title></dc:title>
      </cc:Work>
    </rdf:RDF>
  </metadata>
  <g
     inkscape:label="Layer 1"
     inkscape:groupmode="layer"
     id="layer1"
     transform="translate(0,-412.36218)">
    <path
       style="fill:#ffffff;fill-opacity:1;fill-rule:nonzero;stroke:#000000;stroke-width:0.99999994;stroke-linejoin:miter;stroke-miterlimit:4;stroke-opacity:1;stroke-dasharray:none;stroke-dashoffset:0"
       d="m 25.5,0.5 c -2.77,0 -5,2.23 -5,5 l 0,11 -15,4 c -2.67647,0.71373 -5,2.23 -5,5 l 0,29 c 0,2.77 2.32353,4.28627 5,5 l 15,4 0,571 c 0,2.77 2.23,5 5,5 116.33333,0 232.66667,0 349,0 2.77,0 5,-2.23 5,-5 l 0,-571 15,-4 c 2.67647,-0.71373 5,-2.23 5,-5 l 0,-29 c 0,-2.77 -2.32353,-4.28627 -5,-5 l -15,-4 0,-11 c 0,-2.77 -2.23,-5 -5,-5 -116.33333,0 -232.66667,0 -349,0 z"
       transform="translate(0,412.36218)"
       id="rect3089-8"
       inkscape:connector-curvature="0"
       sodipodi:nodetypes="cscsssscsccscsssscscc" />
    <path
       sodipodi:type="star"
       style="fill:#ff0000;fill-opacity:1;fill-rule:nonzero;stroke:#000000;stroke-width:1.18012834000000000;stroke-linejoin:miter;stroke-miterlimit:4;stroke-opacity:1;stroke-dasharray:none;stroke-dashoffset:0"
       id="path3085-8-2"
       sodipodi:sides="3"
       sodipodi:cx="164.5"
       sodipodi:cy="22.999998"
       sodipodi:r1="10.125"
       sodipodi:r2="5.0625"
       sodipodi:arg1="1.5707963"
       sodipodi:arg2="2.6179939"
       inkscape:flatsided="true"
       inkscape:rounded="0.1"
       inkscape:randomized="0"
       d="m 164.5,33.124998 c -1.7537,0 -9.64536,-13.66875 -8.76851,-15.1875 0.87685,-1.51875 16.66017,-1.51875 17.53702,0 0.87685,1.51875 -7.01481,15.1875 -8.76851,15.1875 z"
       transform="matrix(0,0.84770177,-0.84702936,0,34.1961,312.89838)"
       inkscape:transform-center-x="2.1440434" />
    <rect
       style="fill:#ffffff;fill-opacity:1;fill-rule:nonzero;stroke:#000000;stroke-width:0.99999988;stroke-linejoin:miter;stroke-miterlimit:4;stroke-opacity:1;stroke-dasharray:none;stroke-dashoffset:0"
       id="rect2987"
       width="139"
       height="59"
       x="420.5"
       y="832.86212" />
    <rect
       style="fill:#ffffff;fill-opacity:1;fill-rule:nonzero;stroke:#000000;stroke-width:0.99999988;stroke-linejoin:miter;stroke-miterlimit:4;stroke-opacity:1;stroke-dasharray:none;stroke-dashoffset:0"
       id="rect2987-1"
       width="59"
       height="59"
       x="420.5"
       y="752.86212" />
    <rect
       style="fill:#ffffff;fill-opacity:1;fill-rule:nonzero;stroke:#000000;stroke-width:0.99999988;stroke-linejoin:miter;stroke-miterlimit:4;stroke-opacity:1;stroke-dasharray:none;stroke-dashoffset:0"
       id="rect2987-1-4"
       width="59"
       height="59"
       x="500.5"
       y="752.86212" />
    <rect
       style="fill:#ffffff;fill-opacity:1;fill-rule:nonzero;stroke:#000000;stroke-width:1;stroke-linejoin:miter;stroke-miterlimit:4;stroke-opacity:1;stroke-dasharray:none;stroke-dashoffset:0"
       id="rect3043"
       width="139"
       height="139"
       x="420.5"
       y="432.86218" />
    <rect
       style="fill:#ffffff;fill-opacity:1;fill-rule:nonzero;stroke:#000000;stroke-width:1;stroke-linejoin:miter;stroke-miterlimit:4;stroke-opacity:1;stroke-dasharray:none;stroke-dashoffset:0"
       id="rect3043-0"
       width="139"
       height="139"
       x="420.5"
       y="592.86218" />
    <path
       sodipodi:type="star"
       style="fill:#ff0000;fill-opacity:1;fill-rule:nonzero;stroke:#000000;stroke-width:1.18012834000000000;stroke-linejoin:miter;stroke-miterlimit:4;stroke-opacity:1;stroke-dasharray:none;stroke-dashoffset:0"
       id="path3085-8"
       sodipodi:sides="3"
       sodipodi:cx="164.5"
       sodipodi:cy="22.999998"
       sodipodi:r1="10.125"
       sodipodi:r2="5.0625"
       sodipodi:arg1="1.5707963"
       sodipodi:arg2="2.6179939"
       inkscape:flatsided="true"
       inkscape:rounded="0.1"
       inkscape:randomized="0"
       d="m 164.5,33.124998 c -1.7537,0 -9.64536,-13.66875 -8.76851,-15.1875 0.87685,-1.51875 16.66017,-1.51875 17.53702,0 0.87685,1.51875 -7.01481,15.1875 -8.76851,15.1875 z"
       transform="matrix(0,0.84770177,0.84702936,0,365.8039,312.89838)"
       inkscape:transform-center-x="-2.1440434" />
    <rect
       style="fill:#ffffff;fill-opacity:1;fill-rule:nonzero;stroke:#000000;stroke-width:1;stroke-linejoin:miter;stroke-miterlimit:4;stroke-opacity:1;stroke-dasharray:none;stroke-dashoffset:0"
       id="rect3043-0-4"
       width="139"
       height="119"
       x="420.5"
       y="912.86218" />
  </g>
</svg>
