<?xml version="1.0" encoding="UTF-8" standalone="no"?>
<!-- Created with Inkscape (http://www.inkscape.org/) -->

<svg
   xmlns:dc="http://purl.org/dc/elements/1.1/"
   xmlns:cc="http://creativecommons.org/ns#"
   xmlns:rdf="http://www.w3.org/1999/02/22-rdf-syntax-ns#"
   xmlns:svg="http://www.w3.org/2000/svg"
   xmlns="http://www.w3.org/2000/svg"
   xmlns:sodipodi="http://sodipodi.sourceforge.net/DTD/sodipodi-0.dtd"
   xmlns:inkscape="http://www.inkscape.org/namespaces/inkscape"
   width="400"
   height="640"
   id="svg2"
   version="1.1"
   inkscape:version="0.48.5 r10040"
   sodipodi:docname="New document 1">
  <defs
     id="defs4" />
  <sodipodi:namedview
     id="base"
     pagecolor="#ffffff"
     bordercolor="#666666"
     borderopacity="1.0"
     inkscape:pageopacity="0.0"
     inkscape:pageshadow="2"
     inkscape:zoom="1"
     inkscape:cx="220.85674"
     inkscape:cy="383.84158"
     inkscape:document-units="px"
     inkscape:current-layer="layer1"
     showgrid="false"
     showguides="true"
     inkscape:guide-bbox="true"
     inkscape:window-width="1920"
     inkscape:window-height="1018"
     inkscape:window-x="-8"
     inkscape:window-y="-8"
     inkscape:window-maximized="1" />
  <metadata
     id="metadata7">
    <rdf:RDF>
      <cc:Work
         rdf:about="">
        <dc:format>image/svg+xml</dc:format>
        <dc:type
           rdf:resource="http://purl.org/dc/dcmitype/StillImage" />
        <dc:title></dc:title>
      </cc:Work>
    </rdf:RDF>
  </metadata>
  <g
     inkscape:label="Layer 1"
     inkscape:groupmode="layer"
     id="layer1"
     transform="translate(0,-412.36218)">
    <path
       inkscape:connector-curvature="0"
       style="fill:#ffffff;fill-opacity:1;fill-rule:nonzero;stroke:#000000;stroke-width:0.99999994;stroke-linejoin:miter;stroke-miterlimit:4;stroke-opacity:1;stroke-dasharray:none;stroke-dashoffset:0"
       d="m 394.5,412.86218 c 2.77,0 5,2.23 5,5 l 0,629.00002 c 0,2.77 -2.23,5 -5,5 l -169,0 c -2.77,0 -5,-2.23 -5,-5 l 0,-571.00002 -15,-4 c -2.67647,-0.71373 -5,-2.23 -5,-5 l 0,-29 c 0,-2.77 2.32353,-4.28627 5,-5 l 15,-4 0,-11 c 0,-2.77 2.23,-5 5,-5 l 169,0 z"
       id="rect3089-8" />
    <path
       sodipodi:type="star"
       style="fill:#ffffff;fill-opacity:1;fill-rule:nonzero;stroke:#000000;stroke-width:1.18012834;stroke-linejoin:miter;stroke-miterlimit:4;stroke-opacity:1;stroke-dasharray:none;stroke-dashoffset:0"
       id="path3085-8-2"
       sodipodi:sides="3"
       sodipodi:cx="164.5"
       sodipodi:cy="22.999998"
       sodipodi:r1="10.125"
       sodipodi:r2="5.0625"
       sodipodi:arg1="1.5707963"
       sodipodi:arg2="2.6179939"
       inkscape:flatsided="true"
       inkscape:rounded="0.1"
       inkscape:randomized="0"
       d="m 164.5,33.124998 c -1.7537,0 -9.64536,-13.66875 -8.76851,-15.1875 0.87685,-1.51875 16.66017,-1.51875 17.53702,0 0.87685,1.51875 -7.01481,15.1875 -8.76851,15.1875 z"
       transform="matrix(0,0.84770177,-0.84702936,0,234.1961,312.89838)"
       inkscape:transform-center-x="2.1440434" />
    <rect
       style="fill:#ffffff;fill-opacity:1;fill-rule:nonzero;stroke:#000000;stroke-width:0.99999994;stroke-linejoin:miter;stroke-miterlimit:4;stroke-opacity:1;stroke-dasharray:none;stroke-dashoffset:0"
       id="rect2987"
       width="139"
       height="49"
       x="240.5"
       y="982.86218" />
    <rect
       style="fill:#ffffff;fill-opacity:1;fill-rule:nonzero;stroke:#000000;stroke-width:0.99999988;stroke-linejoin:miter;stroke-miterlimit:4;stroke-opacity:1;stroke-dasharray:none;stroke-dashoffset:0"
       id="rect2987-1"
       width="59"
       height="59"
       x="240.5"
       y="912.86212" />
    <rect
       style="fill:#ffffff;fill-opacity:1;fill-rule:nonzero;stroke:#000000;stroke-width:0.99999988;stroke-linejoin:miter;stroke-miterlimit:4;stroke-opacity:1;stroke-dasharray:none;stroke-dashoffset:0"
       id="rect2987-1-4"
       width="59"
       height="59"
       x="320.5"
       y="912.86212" />
    <rect
       style="fill:#ffffff;fill-opacity:1;fill-rule:nonzero;stroke:#000000;stroke-width:1;stroke-linejoin:miter;stroke-miterlimit:4;stroke-opacity:1;stroke-dasharray:none;stroke-dashoffset:0"
       id="rect3043"
       width="139"
       height="139"
       x="240.5"
       y="432.86218" />
    <rect
       style="fill:#ffffff;fill-opacity:1;fill-rule:nonzero;stroke:#000000;stroke-width:1;stroke-linejoin:miter;stroke-miterlimit:4;stroke-opacity:1;stroke-dasharray:none;stroke-dashoffset:0"
       id="rect3043-0"
       width="139"
       height="139"
       x="240.5"
       y="592.86218" />
    <rect
       style="fill:#ffffff;fill-opacity:1;fill-rule:nonzero;stroke:#000000;stroke-width:1;stroke-linejoin:miter;stroke-miterlimit:4;stroke-opacity:1;stroke-dasharray:none;stroke-dashoffset:0"
       id="rect3043-0-9"
       width="139"
       height="139"
       x="240.5"
       y="752.86218" />
    <path
       style="fill:#ffffff;fill-opacity:1;fill-rule:nonzero;stroke:#000000;stroke-width:0.99999994;stroke-linejoin:miter;stroke-miterlimit:4;stroke-opacity:1;stroke-dasharray:none;stroke-dashoffset:0"
       d="M 5.5 0.5 C 2.73 0.5 0.5 2.73 0.5 5.5 L 0.5 634.5 C 0.5 637.27 2.73 639.5 5.5 639.5 L 174.5 639.5 C 177.27 639.5 179.5 637.27 179.5 634.5 L 179.5 63.5 L 194.5 59.5 C 197.17647 58.78627 199.5 57.27 199.5 54.5 L 199.5 25.5 C 199.5 22.73 197.17647 21.21373 194.5 20.5 L 179.5 16.5 L 179.5 5.5 C 179.5 2.73 177.27 0.5 174.5 0.5 L 5.5 0.5 z "
       transform="translate(0,412.36218)"
       id="rect3089" />
    <path
       sodipodi:type="star"
       style="fill:#ffffff;fill-opacity:1;fill-rule:nonzero;stroke:#000000;stroke-width:1.18012834;stroke-linejoin:miter;stroke-miterlimit:4;stroke-opacity:1;stroke-dasharray:none;stroke-dashoffset:0"
       id="path3085-8"
       sodipodi:sides="3"
       sodipodi:cx="164.5"
       sodipodi:cy="22.999998"
       sodipodi:r1="10.125"
       sodipodi:r2="5.0625"
       sodipodi:arg1="1.5707963"
       sodipodi:arg2="2.6179939"
       inkscape:flatsided="true"
       inkscape:rounded="0.1"
       inkscape:randomized="0"
       d="m 164.5,33.124998 c -1.7537,0 -9.64536,-13.66875 -8.76851,-15.1875 0.87685,-1.51875 16.66017,-1.51875 17.53702,0 0.87685,1.51875 -7.01481,15.1875 -8.76851,15.1875 z"
       transform="matrix(0,0.84770177,0.84702936,0,165.8039,312.89838)"
       inkscape:transform-center-x="-2.1440434" />
  </g>
</svg>
