<?xml version="1.0" encoding="UTF-8" standalone="no"?>
<!-- Created with Inkscape (http://www.inkscape.org/) -->

<svg
   xmlns:dc="http://purl.org/dc/elements/1.1/"
   xmlns:cc="http://creativecommons.org/ns#"
   xmlns:rdf="http://www.w3.org/1999/02/22-rdf-syntax-ns#"
   xmlns:svg="http://www.w3.org/2000/svg"
   xmlns="http://www.w3.org/2000/svg"
   xmlns:sodipodi="http://sodipodi.sourceforge.net/DTD/sodipodi-0.dtd"
   xmlns:inkscape="http://www.inkscape.org/namespaces/inkscape"
   width="60"
   height="180"
   id="svg2"
   version="1.1"
   inkscape:version="0.48.5 r10040"
   sodipodi:docname="undo.svg"
   inkscape:export-filename="C:\Users\Nick\Desktop\HTML5 Games\Toppleblox\undo.png"
   inkscape:export-xdpi="90"
   inkscape:export-ydpi="90">
  <defs
     id="defs4" />
  <sodipodi:namedview
     id="base"
     pagecolor="#ffffff"
     bordercolor="#666666"
     borderopacity="1.0"
     inkscape:pageopacity="0.0"
     inkscape:pageshadow="2"
     inkscape:zoom="1"
     inkscape:cx="33.263215"
     inkscape:cy="75.978546"
     inkscape:document-units="px"
     inkscape:current-layer="layer1"
     showgrid="false"
     fit-margin-top="0"
     fit-margin-left="0"
     fit-margin-right="0"
     fit-margin-bottom="0"
     inkscape:window-width="1920"
     inkscape:window-height="1018"
     inkscape:window-x="-8"
     inkscape:window-y="-8"
     inkscape:window-maximized="1" />
  <metadata
     id="metadata7">
    <rdf:RDF>
      <cc:Work
         rdf:about="">
        <dc:format>image/svg+xml</dc:format>
        <dc:type
           rdf:resource="http://purl.org/dc/dcmitype/StillImage" />
        <dc:title></dc:title>
      </cc:Work>
    </rdf:RDF>
  </metadata>
  <g
     inkscape:label="Layer 1"
     inkscape:groupmode="layer"
     id="layer1"
     transform="translate(0,-872.36218)">
    <rect
       style="fill:#e6e6e6;fill-opacity:1;fill-rule:nonzero;stroke:#000000;stroke-width:1;stroke-linecap:round;stroke-linejoin:miter;stroke-miterlimit:4;stroke-opacity:1;stroke-dasharray:none;stroke-dashoffset:0"
       id="rect2985"
       width="59"
       height="59"
       x="0.5"
       y="992.86218"
       rx="5"
       ry="4.9999995" />
    <rect
       style="fill:#999999;fill-opacity:1;fill-rule:nonzero;stroke:#000000;stroke-width:1;stroke-linecap:round;stroke-linejoin:miter;stroke-miterlimit:4;stroke-opacity:1;stroke-dasharray:none;stroke-dashoffset:0"
       id="rect2985-1"
       width="59"
       height="59"
       x="0.5"
       y="932.86218"
       rx="5"
       ry="4.9999995" />
    <rect
       style="fill:#cccccc;fill-opacity:1;fill-rule:nonzero;stroke:#000000;stroke-width:1;stroke-linecap:round;stroke-linejoin:miter;stroke-miterlimit:4;stroke-opacity:1;stroke-dasharray:none;stroke-dashoffset:0"
       id="rect2985-7"
       width="59"
       height="59"
       x="0.5"
       y="872.86218"
       rx="5"
       ry="4.9999995" />
    <path
       style="fill:#808080;fill-opacity:1;fill-rule:nonzero;stroke:#000000;stroke-width:1;stroke-linecap:round;stroke-linejoin:miter;stroke-miterlimit:4;stroke-opacity:1;stroke-dasharray:none;stroke-dashoffset:0"
       d="m 29.686051,879.99814 c -1.988075,0.11773 -19.500528,10.28061 -19.500528,11.38168 0,1.13659 18.669959,11.93476 19.652398,11.36646 0.384455,-0.22238 0.599874,-3.67894 0.683436,-7.8211 5.941343,0.26203 10.67669,5.16665 10.67669,11.18387 0,6.18509 -5.004504,11.19909 -11.177878,11.19909 -1.555238,0 -3.028413,-0.32275 -4.373947,-0.89776 l -3.417149,5.93431 c 2.358363,1.13853 4.997985,1.78029 7.791096,1.78029 9.931084,0 17.981808,-8.06601 17.981808,-18.01593 0,-9.77663 -7.773516,-17.72648 -17.465431,-18.0007 -0.07899,-4.25532 -0.306282,-7.86806 -0.698625,-8.095 -0.03075,-0.0178 -0.08768,-0.019 -0.15187,-0.0152 z"
       id="path3786"
       inkscape:connector-curvature="0" />
    <path
       style="fill:#666666;fill-opacity:1;fill-rule:nonzero;stroke:#000000;stroke-width:1;stroke-linecap:round;stroke-linejoin:miter;stroke-miterlimit:4;stroke-opacity:1;stroke-dasharray:none;stroke-dashoffset:0"
       d="m 29.686051,939.99814 c -1.988075,0.11773 -19.500528,10.28061 -19.500528,11.38168 0,1.13659 18.669959,11.93476 19.652398,11.36646 0.384455,-0.22238 0.599874,-3.67894 0.683436,-7.8211 5.941343,0.26203 10.67669,5.16665 10.67669,11.18387 0,6.18509 -5.004504,11.19909 -11.177878,11.19909 -1.555238,0 -3.028413,-0.32275 -4.373947,-0.89776 l -3.417149,5.93431 c 2.358363,1.13853 4.997985,1.78029 7.791096,1.78029 9.931084,0 17.981808,-8.06601 17.981808,-18.01593 0,-9.77663 -7.773516,-17.72648 -17.465431,-18.0007 -0.07899,-4.25532 -0.306282,-7.86806 -0.698625,-8.095 -0.03075,-0.0178 -0.08768,-0.019 -0.15187,-0.0152 z"
       id="path3786-0"
       inkscape:connector-curvature="0" />
    <path
       style="fill:#999999;fill-opacity:1;fill-rule:nonzero;stroke:#000000;stroke-width:1;stroke-linecap:round;stroke-linejoin:miter;stroke-miterlimit:4;stroke-opacity:1;stroke-dasharray:none;stroke-dashoffset:0"
       d="m 29.686051,999.99814 c -1.988075,0.11776 -19.500528,10.28066 -19.500528,11.38166 0,1.1366 18.669959,11.9348 19.652398,11.3665 0.384455,-0.2224 0.599874,-3.679 0.683436,-7.8211 5.941343,0.262 10.67669,5.1666 10.67669,11.1838 0,6.1851 -5.004504,11.1991 -11.177878,11.1991 -1.555238,0 -3.028413,-0.3227 -4.373947,-0.8977 l -3.417149,5.9343 c 2.358363,1.1385 4.997985,1.7803 7.791096,1.7803 9.931084,0 17.981808,-8.066 17.981808,-18.016 0,-9.7766 -7.773516,-17.7264 -17.465431,-18.0006 -0.07899,-4.2554 -0.306282,-7.8681 -0.698625,-8.095 -0.03075,-0.0179 -0.08768,-0.019 -0.15187,-0.0153 z"
       id="path3786-9"
       inkscape:connector-curvature="0" />
  </g>
</svg>
