<?xml version="1.0" encoding="UTF-8" standalone="no"?>
<!-- Created with Inkscape (http://www.inkscape.org/) -->

<svg
   xmlns:dc="http://purl.org/dc/elements/1.1/"
   xmlns:cc="http://creativecommons.org/ns#"
   xmlns:rdf="http://www.w3.org/1999/02/22-rdf-syntax-ns#"
   xmlns:svg="http://www.w3.org/2000/svg"
   xmlns="http://www.w3.org/2000/svg"
   xmlns:sodipodi="http://sodipodi.sourceforge.net/DTD/sodipodi-0.dtd"
   xmlns:inkscape="http://www.inkscape.org/namespaces/inkscape"
   width="30"
   height="90"
   id="svg2"
   version="1.1"
   inkscape:version="0.48.5 r10040"
   sodipodi:docname="xbutton.svg"
   inkscape:export-filename="C:\Users\Nick\Desktop\HTML5 Games\Toppleblox\xbutton.png"
   inkscape:export-xdpi="90"
   inkscape:export-ydpi="90">
  <defs
     id="defs4" />
  <sodipodi:namedview
     id="base"
     pagecolor="#ffffff"
     bordercolor="#666666"
     borderopacity="1.0"
     inkscape:pageopacity="0.0"
     inkscape:pageshadow="2"
     inkscape:zoom="1"
     inkscape:cx="31.279284"
     inkscape:cy="39.98319"
     inkscape:document-units="px"
     inkscape:current-layer="layer1"
     showgrid="false"
     fit-margin-top="0"
     fit-margin-left="0"
     fit-margin-right="0"
     fit-margin-bottom="0"
     inkscape:window-width="1920"
     inkscape:window-height="1018"
     inkscape:window-x="-8"
     inkscape:window-y="-8"
     inkscape:window-maximized="1" />
  <metadata
     id="metadata7">
    <rdf:RDF>
      <cc:Work
         rdf:about="">
        <dc:format>image/svg+xml</dc:format>
        <dc:type
           rdf:resource="http://purl.org/dc/dcmitype/StillImage" />
        <dc:title></dc:title>
      </cc:Work>
    </rdf:RDF>
  </metadata>
  <g
     inkscape:label="Layer 1"
     inkscape:groupmode="layer"
     id="layer1"
     transform="translate(0,-962.36218)">
    <rect
       style="fill:#cccccc;stroke:#000000;stroke-width:1"
       id="rect2985"
       width="29"
       height="29"
       x="0.5"
       y="1022.8622"
       rx="5"
       ry="5" />
    <path
       style="fill:#ff0000;fill-opacity:1;fill-rule:nonzero;stroke:#000000;stroke-width:1;stroke-linejoin:miter;stroke-miterlimit:4;stroke-opacity:1;stroke-dasharray:none;stroke-dashoffset:0"
       d="M 7.6972789,1027.8622 5.5,1030.0558 12.802721,1037.3784 5.5,1044.6687 7.6972789,1046.8622 15,1039.5719 22.302721,1046.8622 24.5,1044.6687 17.197279,1037.3784 24.5,1030.0558 22.302721,1027.8622 15,1035.1526 7.6972789,1027.8622 z"
       id="rect2987"
       inkscape:connector-curvature="0" />
    <rect
       style="fill:#808080;stroke:#000000;stroke-width:1"
       id="rect2985-7"
       width="29"
       height="29"
       x="0.5"
       y="992.86218"
       rx="5"
       ry="5" />
    <path
       style="fill:#ff0000;fill-opacity:1;fill-rule:nonzero;stroke:#000000;stroke-width:1;stroke-linejoin:miter;stroke-miterlimit:4;stroke-opacity:1;stroke-dasharray:none;stroke-dashoffset:0"
       d="M 7.6972789,997.8622 5.5,1000.0558 12.802721,1007.3784 5.5,1014.6687 7.6972789,1016.8622 15,1009.5719 22.302721,1016.8622 24.5,1014.6687 17.197279,1007.3784 24.5,1000.0558 22.302721,997.8622 15,1005.1526 7.6972789,997.8622 z"
       id="rect2987-4"
       inkscape:connector-curvature="0" />
    <rect
       style="fill:#b3b3b3;stroke:#000000;stroke-width:1"
       id="rect2985-0"
       width="29"
       height="29"
       x="0.5"
       y="962.86218"
       rx="5"
       ry="5" />
    <path
       style="fill:#ff0000;fill-opacity:1;fill-rule:nonzero;stroke:#000000;stroke-width:1;stroke-linejoin:miter;stroke-miterlimit:4;stroke-opacity:1;stroke-dasharray:none;stroke-dashoffset:0"
       d="M 7.6972789,967.8622 5.5,970.0558 12.802721,977.3784 5.5,984.6687 7.6972789,986.8622 15,979.5719 22.302721,986.8622 24.5,984.6687 17.197279,977.3784 24.5,970.0558 22.302721,967.8622 15,975.1526 7.6972789,967.8622 z"
       id="rect2987-9"
       inkscape:connector-curvature="0" />
  </g>
</svg>
